<?xml version="1.0" encoding="utf-8"?>
<svg version="1.1" id="Layer_1" xmlns="http://www.w3.org/2000/svg" xmlns:xlink="http://www.w3.org/1999/xlink" x="0px" y="0px" width="96px" height="96px" viewBox="0 0 96 96" style="enable-background:new 0 0 96 96;" xml:space="preserve">
<path d="M61.81,49.53c-0.88-0.88-0.88-2.18,0-3.06l32.88-32.88c0.88-0.88,1.31-2.2,1.31-3.06c0-0.88-0.43-2.2-1.31-3.08L88.55,1.3 C87.67,0.43,86.37,0,85.49,0c-1.33,0-2.21,0.43-3.09,1.3L49.53,34.18c-0.88,0.88-2.18,0.88-3.06,0L13.59,1.3 C12.71,0.43,11.39,0,10.53,0c-0.88,0-2.2,0.43-3.08,1.3L1.3,7.45C0.43,8.33,0,9.65,0,10.53c0,0.85,0.43,2.18,1.3,3.06l32.88,32.88 c0.88,0.88,0.88,2.19,0,3.06L1.3,82.41C0.43,83.28,0,84.61,0,85.49c0,0.88,0.43,2.18,1.3,3.06l6.14,6.14 C8.33,95.57,9.65,96,10.53,96c0.85,0,2.18-0.43,3.06-1.31l32.88-32.88c0.88-0.88,2.19-0.88,3.06,0l32.88,32.88 c0.88,0.88,2.2,1.31,3.09,1.31c0.88,0,2.18-0.43,3.06-1.31l6.14-6.14c0.88-0.88,1.31-2.18,1.31-3.06c0-0.88-0.43-2.21-1.31-3.08 L61.81,49.53z M61.81,49.53"/>
</svg>
